<?xml version="1.0" encoding="utf-8"?>
<!-- Generator: Adobe Illustrator 16.0.0, SVG Export Plug-In . SVG Version: 6.00 Build 0)  -->
<!DOCTYPE svg PUBLIC "-//W3C//DTD SVG 1.1//EN" "http://www.w3.org/Graphics/SVG/1.1/DTD/svg11.dtd">
<svg version="1.1" id="Layer_1" xmlns="http://www.w3.org/2000/svg" xmlns:xlink="http://www.w3.org/1999/xlink" x="0px" y="0px"
	 width="500px" height="250px" viewBox="0 0 500 250" enable-background="new 0 0 500 250" xml:space="preserve">
<g id="g302">
	<g id="g304">
	</g>
</g>
<g>
	<path fill="none" d="M213.093,125.67c0.043-6.738,4.062-10.295,8.709-10.295c4.564,0,8.039,3.684,8.039,9.541c0,0,0,0,0,13.936
		c0,0,0,0,5.568,0v-14.856c0-9.792-6.406-13.686-12.77-13.686c-3.895,0-8.164,1.968-9.713,5.314c0,0,0,0,0-4.728c0,0,0,0-5.443,0
		c0,0,0,0,0,27.955c0,0,0,0,5.609,0C213.093,138.852,213.093,138.852,213.093,125.67z"/>
	<path fill="none" d="M392.159,139.48c3.85,0,6.824-1.547,8.836-3.934c0,0,0,0,0,3.305c0,0,0,0,5.607,0v-27.955c0,0,0,0-5.607,0
		c0,0,0,0,0,3.307c-2.051-2.387-4.986-3.894-8.836-3.894c-8.082,0-14.068,6.487-14.068,14.565
		C378.091,132.992,384.077,139.48,392.159,139.48z M392.663,115.082c4.309,0,8.498,3.096,8.498,9.834
		c0,6.737-4.189,9.793-8.498,9.793c-6.07,0-8.959-5.062-8.959-9.793C383.704,120.228,386.593,115.082,392.663,115.082z"/>
	<path fill="none" d="M164.277,139.48c3.852,0,6.824-1.547,8.834-3.934c0,0,0,0,0,3.305c0,0,0,0,5.609,0v-27.955c0,0,0,0-5.609,0
		c0,0,0,0,0,3.307c-2.051-2.387-4.982-3.894-8.834-3.894c-8.037,0-14.025,6.487-14.025,14.565
		C150.251,132.992,156.24,139.48,164.277,139.48z M164.779,115.082c4.312,0,8.498,3.096,8.498,9.834
		c0,6.737-4.186,9.793-8.498,9.793c-6.029,0-8.959-5.062-8.959-9.793C155.82,120.228,158.749,115.082,164.779,115.082z"/>
	<path fill="none" d="M278.407,139.439c8.08,0,14.566-6.49,14.566-14.564c0-8.078-6.486-14.565-14.566-14.565
		c-8.041,0-14.527,6.487-14.527,14.565C263.88,132.949,270.366,139.439,278.407,139.439z M278.407,115.375
		c4.939,0,8.961,3.809,8.961,9.501c0,5.648-4.021,9.5-8.961,9.5c-4.945,0-8.957-3.809-8.957-9.5
		C269.45,119.183,273.466,115.375,278.407,115.375z"/>
	<path fill="none" d="M107.923,134.457c-6.572,0-11.137-4.559-11.137-4.559s-3.055,4.143-3.139,4.143
		c4.477,4.057,10.213,5.439,14.609,5.439c7.746,0,13.105-3.934,13.105-8.83c0-6.278-5.82-7.493-12.645-8.413
		c-5.107-0.67-9.168-0.837-9.168-3.475c0-1.297,2.385-3.389,7.367-3.389c6.238,0,9.924,3.684,9.924,3.684s3.141-4.27,3.057-4.311
		c-3.434-2.931-7.662-4.354-13.064-4.354c-6.865,0-12.895,3.515-12.895,8.453c0,6.655,7.453,7.661,13.146,8.374
		c4.439,0.582,8.584,0.834,8.584,3.594C115.669,132.197,114.159,134.457,107.923,134.457z"/>
	<path fill="none" d="M323.12,122.281c0-6.823,3.768-7.199,4.943-7.199c1.422,0,4.561,0.543,4.561,7.032c0,0,0,0,0,16.738
		c0,0,0,0,5.611,0c0,0,0,0,0-16.571c0-6.823,3.85-7.199,5.021-7.199c1.467,0,4.607,0.543,4.607,7.032c0,0,0,0,0,16.738
		c0,0,0,0,5.609,0c0,0,0,0,0-16.781c0.211-9.417-4.812-11.761-9.045-11.761c-2.174,0-5.814,0.963-7.701,4.479
		c-1.506-3.013-4.145-4.479-7.242-4.479c-1.926,0-5.066,0.796-6.572,3.768c0,0,0,0,0-3.181c0,0,0,0-5.404,0c0,0,0,0,0,27.955
		c0,0,0,0,5.611,0C323.12,138.852,323.12,138.852,323.12,122.281z"/>
	<path fill="none" d="M420.837,96.499c0,0.412,0,5.032,0,56.917c0,0,0,0-341.803,0c0,0,0-0.001,0-56.917h-0.039v57.003h342.01
		V96.499H420.837z"/>
	<path fill="#9F9F9F" d="M392.663,134.709c4.309,0,8.498-3.057,8.498-9.793c0-6.738-4.189-9.834-8.498-9.834
		c-6.07,0-8.959,5.146-8.959,9.834C383.704,129.646,386.593,134.709,392.663,134.709z"/>
	<path fill="#9F9F9F" d="M278.407,134.375c4.939,0,8.961-3.852,8.961-9.5c0-5.692-4.021-9.501-8.961-9.501
		c-4.941,0-8.957,3.809-8.957,9.501C269.45,130.566,273.462,134.375,278.407,134.375z"/>
	<path fill="#9F9F9F" d="M164.779,134.709c4.312,0,8.498-3.057,8.498-9.793c0-6.738-4.186-9.834-8.498-9.834
		c-6.029,0-8.959,5.146-8.959,9.834C155.82,129.646,158.749,134.709,164.779,134.709z"/>
	<path fill="#9F9F9F" d="M420.837,153.416c0-51.885,0-56.506,0-56.917H79.034c0,56.917,0,56.917,0,56.917
		C420.837,153.416,420.837,153.416,420.837,153.416z M392.159,110.31c3.85,0,6.785,1.507,8.836,3.894c0-3.307,0-3.307,0-3.307
		c5.607,0,5.607,0,5.607,0v27.955c-5.607,0-5.607,0-5.607,0c0-3.305,0-3.305,0-3.305c-2.012,2.387-4.986,3.934-8.836,3.934
		c-8.082,0-14.068-6.488-14.068-14.605C378.091,116.797,384.077,110.31,392.159,110.31z M317.509,110.897c5.404,0,5.404,0,5.404,0
		c0,3.181,0,3.181,0,3.181c1.506-2.972,4.646-3.768,6.572-3.768c3.098,0,5.736,1.466,7.242,4.479
		c1.887-3.516,5.527-4.479,7.701-4.479c4.232,0,9.256,2.344,9.045,11.761c0,16.781,0,16.781,0,16.781c-5.609,0-5.609,0-5.609,0
		c0-16.738,0-16.738,0-16.738c0-6.489-3.141-7.032-4.607-7.032c-1.172,0-5.021,0.376-5.021,7.199c0,16.571,0,16.571,0,16.571
		c-5.611,0-5.611,0-5.611,0c0-16.738,0-16.738,0-16.738c0-6.489-3.139-7.032-4.561-7.032c-1.176,0-4.943,0.376-4.943,7.199
		c0,16.571,0,16.571,0,16.571c-5.611,0-5.611,0-5.611,0C317.509,110.897,317.509,110.897,317.509,110.897z M278.407,110.31
		c8.08,0,14.566,6.487,14.566,14.565c0,8.074-6.486,14.564-14.566,14.564c-8.041,0-14.527-6.49-14.527-14.564
		C263.88,116.797,270.366,110.31,278.407,110.31z M207.484,110.897c5.443,0,5.443,0,5.443,0c0,4.728,0,4.728,0,4.728
		c1.549-3.347,5.818-5.314,9.713-5.314c6.363,0,12.77,3.894,12.77,13.686v14.856c-5.568,0-5.568,0-5.568,0
		c0-13.936,0-13.936,0-13.936c0-5.857-3.475-9.541-8.039-9.541c-4.646,0-8.666,3.558-8.709,10.295c0,13.182,0,13.182,0,13.182
		c-5.609,0-5.609,0-5.609,0C207.484,110.897,207.484,110.897,207.484,110.897z M164.277,110.31c3.852,0,6.783,1.507,8.834,3.894
		c0-3.307,0-3.307,0-3.307c5.609,0,5.609,0,5.609,0v27.955c-5.609,0-5.609,0-5.609,0c0-3.305,0-3.305,0-3.305
		c-2.01,2.387-4.982,3.934-8.834,3.934c-8.037,0-14.025-6.488-14.025-14.605C150.251,116.797,156.24,110.31,164.277,110.31z
		 M107.085,127.221c-5.693-0.713-13.146-1.719-13.146-8.374c0-4.938,6.029-8.453,12.895-8.453c5.402,0,9.631,1.423,13.064,4.354
		c0.084,0.041-3.057,4.311-3.057,4.311s-3.686-3.684-9.924-3.684c-4.982,0-7.367,2.092-7.367,3.389c0,2.638,4.061,2.805,9.168,3.475
		c6.824,0.92,12.645,2.135,12.645,8.413c0,4.896-5.359,8.83-13.105,8.83c-4.396,0-10.133-1.383-14.609-5.439
		c0.084,0,3.139-4.143,3.139-4.143s4.564,4.559,11.137,4.559c6.236,0,7.746-2.26,7.746-3.643
		C115.669,128.055,111.525,127.803,107.085,127.221z"/>
</g>
</svg>
